<svg width="14" height="12" viewBox="0 0 14 12" fill="none" xmlns="http://www.w3.org/2000/svg">
<path fill-rule="evenodd" clip-rule="evenodd" d="M0.406656 5.62499C1.63616 2.60545 4.17282 0.666664 7 0.666664C9.82718 0.666664 12.3638 2.60545 13.5933 5.62499C13.6911 5.8651 13.6911 6.1349 13.5933 6.375C12.3638 9.39454 9.82718 11.3333 7 11.3333C4.17282 11.3333 1.63616 9.39454 0.406656 6.375C0.308891 6.1349 0.308891 5.8651 0.406656 5.62499ZM7 10.0998C9.27937 10.0998 11.3692 8.5245 12.4333 6C11.3692 3.4755 9.27937 1.90022 7 1.90022C4.72063 1.90022 2.63083 3.4755 1.56672 6C2.63083 8.5245 4.72063 10.0998 7 10.0998ZM7 8.43084C5.68082 8.43084 4.61141 7.34251 4.61141 6C4.61141 4.65748 5.68082 3.56916 7 3.56916C8.31918 3.56916 9.38859 4.65748 9.38859 6C9.38859 7.34251 8.31918 8.43084 7 8.43084ZM7 7.19728C7.64975 7.19728 8.17647 6.66124 8.17647 6C8.17647 5.33876 7.64975 4.80272 7 4.80272C6.35025 4.80272 5.82353 5.33876 5.82353 6C5.82353 6.66124 6.35025 7.19728 7 7.19728Z" fill="#92929D"/>
</svg>
