<svg width="16" height="16" viewBox="0 0 16 16" fill="none" xmlns="http://www.w3.org/2000/svg">
<path fill-rule="evenodd" clip-rule="evenodd" d="M1.40666 7.62499C2.63616 4.60545 5.17282 2.66666 8 2.66666C10.8272 2.66666 13.3638 4.60545 14.5933 7.62499C14.6911 7.8651 14.6911 8.1349 14.5933 8.375C13.3638 11.3945 10.8272 13.3333 8 13.3333C5.17282 13.3333 2.63616 11.3945 1.40666 8.375C1.30889 8.1349 1.30889 7.8651 1.40666 7.62499ZM8 12.0998C10.2794 12.0998 12.3692 10.5245 13.4333 8C12.3692 5.4755 10.2794 3.90022 8 3.90022C5.72063 3.90022 3.63083 5.4755 2.56672 8C3.63083 10.5245 5.72063 12.0998 8 12.0998ZM8 10.4308C6.68082 10.4308 5.61141 9.34251 5.61141 8C5.61141 6.65748 6.68082 5.56916 8 5.56916C9.31918 5.56916 10.3886 6.65748 10.3886 8C10.3886 9.34251 9.31918 10.4308 8 10.4308ZM8 9.19728C8.64975 9.19728 9.17647 8.66124 9.17647 8C9.17647 7.33876 8.64975 6.80272 8 6.80272C7.35025 6.80272 6.82353 7.33876 6.82353 8C6.82353 8.66124 7.35025 9.19728 8 9.19728Z" fill="#92929D"/>
</svg>
